<?xml version="1.0" standalone="no"?>
<!DOCTYPE svg PUBLIC "-//W3C//DTD SVG 20010904//EN"
 "http://www.w3.org/TR/2001/REC-SVG-20010904/DTD/svg10.dtd">
<svg version="1.0" xmlns="http://www.w3.org/2000/svg"
 width="256.000000pt" height="256.000000pt" viewBox="0 0 256.000000 256.000000"
 preserveAspectRatio="xMidYMid meet">

<g transform="translate(0.000000,256.000000) scale(0.100000,-0.100000)"
fill="#000000" stroke="none">
<path d="M930 1470 c0 -5 9 -10 20 -10 11 0 20 -4 20 -10 0 -6 -35 -10 -85
-10 -69 0 -85 -3 -85 -15 0 -8 9 -15 20 -15 16 0 19 -5 15 -22 -32 -143 -32
-140 7 -136 31 3 32 5 48 78 10 48 21 76 31 78 11 2 14 -12 14 -68 1 -50 -3
-70 -12 -70 -29 0 -11 -20 20 -22 26 -1 24 -2 -13 -7 -79 -11 -40 -26 66 -26
113 1 140 11 174 68 38 61 18 140 -43 177 -25 16 -50 20 -114 20 -49 0 -83 -4
-83 -10z m182 -67 c25 -22 30 -60 14 -92 -25 -48 -82 -56 -121 -16 -73 72 31
177 107 108z"/>
<path d="M1020 1395 c-7 -9 -10 -18 -7 -21 10 -11 37 5 37 21 0 19 -14 19 -30
0z"/>
<path d="M1070 1395 c0 -16 27 -32 37 -21 7 7 -16 36 -28 36 -5 0 -9 -7 -9
-15z"/>
<path d="M998 1355 c-8 -8 2 -45 13 -45 4 0 11 5 15 11 7 12 -19 43 -28 34z"/>
<path d="M1042 1348 c6 -18 28 -21 28 -4 0 9 -7 16 -16 16 -9 0 -14 -5 -12
-12z"/>
<path d="M1103 1353 c-15 -6 -17 -43 -3 -43 12 0 24 25 18 38 -1 5 -9 7 -15 5z"/>
<path d="M1041 1306 c-9 -11 -8 -15 5 -20 20 -8 39 7 30 23 -10 15 -21 14 -35
-3z"/>
<path d="M484 1428 c-12 -18 -84 -169 -84 -174 0 -13 31 -1 40 16 6 11 21 20
34 20 15 0 26 -7 29 -20 4 -15 14 -20 41 -20 l35 0 -6 53 c-14 127 -16 132
-50 135 -18 2 -35 -2 -39 -10z m16 -83 c0 -18 -5 -25 -20 -25 -17 0 -18 3 -8
25 6 14 15 25 20 25 4 0 8 -11 8 -25z"/>
<path d="M626 1431 c-3 -5 -11 -41 -18 -80 -11 -63 -10 -73 4 -87 23 -23 96
-21 120 4 19 19 48 108 48 150 0 37 -24 20 -33 -24 -24 -110 -27 -114 -54
-114 -24 0 -25 2 -20 38 22 134 23 122 -11 122 -17 0 -33 -4 -36 -9z"/>
<path d="M1225 1428 c-6 -17 -35 -156 -35 -169 0 -12 117 -12 125 1 4 6 -7 10
-26 10 -28 0 -31 3 -25 23 3 12 6 25 6 30 0 4 11 7 25 7 16 0 25 6 25 15 0 9
-9 15 -21 15 -15 0 -20 5 -17 23 2 17 11 23 36 25 20 2 32 9 32 18 0 19 -118
20 -125 2z"/>
<path d="M1388 1425 c-52 -28 -45 -84 13 -104 20 -7 29 -16 27 -27 -5 -25 -25
-28 -31 -4 -7 26 -43 26 -57 1 -5 -11 -10 -22 -10 -25 0 -12 72 -23 105 -16
50 11 67 28 63 64 -2 25 -11 35 -40 49 -38 19 -52 47 -23 47 8 0 15 -7 15 -16
0 -23 54 -14 58 10 2 10 -2 22 -10 27 -20 13 -80 10 -110 -6z"/>
<path d="M1568 1423 c-33 -21 -48 -53 -48 -102 0 -51 25 -73 85 -73 52 0 71
12 78 47 4 22 1 25 -25 25 -21 0 -31 -6 -38 -25 -5 -14 -14 -25 -20 -25 -15 0
-12 76 5 116 16 39 35 37 35 -2 0 -22 4 -25 28 -22 22 2 28 9 30 34 3 26 -1
33 -20 38 -40 10 -82 6 -110 -11z"/>
<path d="M1760 1427 c-35 -17 -64 -79 -56 -121 9 -46 26 -58 83 -58 41 0 52 5
75 31 26 29 33 55 29 106 -5 47 -75 70 -131 42z m61 -78 c-12 -52 -26 -79 -42
-79 -21 0 -2 105 24 138 20 26 29 -5 18 -59z"/>
<path d="M1936 1431 c-7 -11 -36 -146 -36 -167 0 -11 17 -14 79 -14 71 0 80 2
86 20 4 14 15 20 36 20 22 0 29 -5 29 -20 0 -16 7 -20 36 -20 l36 0 -6 68
c-12 119 -13 122 -52 122 -33 0 -35 -3 -73 -83 -37 -82 -39 -84 -70 -79 -17 2
-31 7 -31 11 1 3 7 35 15 71 8 36 14 68 15 73 0 10 -58 9 -64 -2z m184 -81 c0
-20 -5 -30 -15 -30 -18 0 -18 2 -3 35 15 32 18 32 18 -5z"/>
<path d="M1397 1143 c-11 -10 -8 -83 3 -83 6 0 10 6 10 14 0 7 11 16 25 18 18
4 26 0 31 -14 4 -14 13 -18 32 -16 36 4 45 53 12 63 -12 4 -27 2 -32 -3 -7 -7
-16 -4 -29 9 -19 19 -40 24 -52 12z m38 -23 c3 -5 -1 -10 -10 -10 -9 0 -13 5
-10 10 3 6 8 10 10 10 2 0 7 -4 10 -10z m75 -24 c0 -8 -4 -18 -10 -21 -5 -3
-10 3 -10 14 0 12 5 21 10 21 6 0 10 -6 10 -14z"/>
<path d="M1726 1134 c-20 -19 -20 -48 -2 -64 18 -14 58 -10 64 8 3 9 -3 11
-22 6 -23 -5 -26 -3 -26 20 0 28 9 33 28 14 17 -17 28 -2 12 17 -16 19 -34 19
-54 -1z"/>
<path d="M1923 1136 c5 -11 -1 -14 -21 -13 -24 2 -27 -2 -30 -30 -4 -39 13
-44 22 -8 4 14 11 25 16 25 6 0 10 -11 10 -25 0 -14 5 -25 10 -25 6 0 10 20
10 45 0 26 -5 45 -11 45 -6 0 -9 -7 -6 -14z"/>
<path d="M1540 1123 c0 -24 20 -63 33 -63 16 0 39 58 25 66 -5 3 -12 -4 -15
-16 l-6 -23 -18 24 c-10 13 -19 19 -19 12z"/>
<path d="M1620 1115 c-20 -25 -8 -50 25 -50 21 0 31 5 33 18 4 21 -14 47 -33
47 -7 0 -18 -7 -25 -15z m35 -35 c-5 -8 -11 -8 -17 -2 -6 6 -7 16 -3 22 5 8
11 8 17 2 6 -6 7 -16 3 -22z"/>
<path d="M1815 1122 c-6 -4 -12 -19 -13 -34 -2 -25 2 -28 29 -28 28 0 30 2 27
32 -3 33 -22 46 -43 30z"/>
<path d="M1960 1115 c-18 -21 -3 -55 25 -55 13 0 27 4 30 10 4 6 13 5 24 -2
11 -7 26 -8 37 -3 18 8 17 9 -3 12 -13 3 -23 11 -23 19 0 11 6 13 20 9 23 -7
28 10 5 19 -18 7 -45 -3 -45 -16 0 -5 -7 -2 -16 6 -19 20 -38 20 -54 1z m40
-19 c0 -8 -4 -18 -10 -21 -5 -3 -10 3 -10 14 0 12 5 21 10 21 6 0 10 -6 10
-14z"/>
<path d="M2114 1118 c-5 -7 -10 -23 -12 -35 -2 -20 2 -23 28 -23 29 0 31 2 28
32 -3 35 -29 50 -44 26z"/>
</g>
</svg>
